<svg width="151" height="116" viewBox="0 0 151 116" fill="none" xmlns="http://www.w3.org/2000/svg">
  <path fill="#343434" d="M46.8 0h104v104h-104z"/>
  <path fill="#EBEBEB" d="M.4 12h104v104H.4z"/>
  <path d="M65.008 98c-4.224 0-7.32-.888-9.288-2.664-1.968-1.824-2.952-4.776-2.952-8.856V73.52c0-4.128.888-7.08 2.664-8.856C57.208 62.888 60.16 62 64.288 62h3.384c3.408 0 5.976.96 7.704 2.88 1.776 1.872 2.664 4.632 2.664 8.28v9.36H58.888v5.4c0 1.488.456 2.64 1.368 3.456.912.816 2.256 1.224 4.032 1.224h11.448V98H65.008zm7.056-26.28c0-1.248-.408-2.28-1.224-3.096-.816-.816-1.848-1.224-3.096-1.224h-4.176c-1.728 0-2.952.408-3.672 1.224-.672.768-1.008 1.92-1.008 3.456v5.04h13.176v-5.4zM95.323 98h-6.768l12.528-26.064L89.707 47.6h6.84l7.92 17.064 8.208-17.064h6.696l-11.664 24.264L120.091 98h-7.056l-8.64-18.936L95.323 98zM8.4 105h36v5h-36z" fill="#343434"/>
  <mask id="a" mask-type="alpha" maskUnits="userSpaceOnUse" x="88" y="47" width="33" height="51">
    <path d="M95.34 98h-6.768L101.1 71.936 89.724 47.6h6.84l7.92 17.064 8.208-17.064h6.696l-11.664 24.264L120.108 98h-7.056l-8.64-18.936L95.34 98z" fill="#000"/>
  </mask>
  <g mask="url(#a)">
    <path fill="#EBEBEB" d="M104.47 46h21v54h-21z"/>
  </g>
</svg>
