<svg width="32" height="32" xmlns="http://www.w3.org/2000/svg" viewBox="0 0 32 32" xml:space="preserve"><path fill="none" stroke="red" stroke-width="2" stroke-linecap="round" d="M16 23c-3.87 0-7-3.13-7-7s3.13-7 7-7M6.81 6.81l2.12 2.12M3 16h3M6.81 25.19l2.12-2.12"/><path fill="none" stroke="#ff0" stroke-width="2" stroke-linecap="round" stroke-linejoin="round" d="M16 12.55A6.992 6.992 0 0122.09 9c.16 0 .31.01.47.02a5.25 5.25 0 002.45 9.89c1.6 0 3.03-.72 3.99-1.85-.52 3.37-3.41 5.94-6.91 5.94-2.61 0-4.89-1.43-6.09-3.55"/><path fill="none" stroke="#000" stroke-width="2" stroke-linecap="round" d="M16 3v26"/></svg>
